<svg id="Capa_1" enable-background="new 0 0 512 512" height="512" viewBox="0 0 512 512" width="512" xmlns="http://www.w3.org/2000/svg"><g><g><g><g><g><g><path d="m256 450.071c-4.267 0-7.726-3.459-7.726-7.726l-.003-148.07c0-4.267 3.459-7.726 7.726-7.726s7.726 3.459 7.726 7.726l.003 148.07c0 4.267-3.459 7.726-7.726 7.726z" fill="#bdecf9"/></g><path d="m344.743 498.229-.066-.023c-25.547-8.847-48.463-23.968-66.644-43.977l-14.409-15.857c-4.088-4.498-11.161-4.498-15.249 0l-14.409 15.857c-18.181 20.009-41.097 35.13-66.644 43.977l-.066.023c-7.545 2.613-5.668 13.771 2.317 13.771h172.853c7.985 0 9.862-11.158 2.317-13.771z" fill="#f1faff"/><path d="m342.424 512h-21.664c-.341-.178-.71-.328-1.093-.464l-.068-.027c-25.557-8.838-48.464-23.959-66.645-43.97l-15.545-17.102 10.966-12.062c4.088-4.496 11.16-4.496 15.247.002l14.411 15.858c18.181 19.997 41.101 35.132 66.645 43.97l.068.027c7.54 2.608 5.668 13.768-2.322 13.768z" fill="#c9f0fd"/></g></g></g><path d="m421.087 5.666c-1.463-3.451-4.873-5.666-8.613-5.666h-312.948c-3.74 0-7.149 2.215-8.612 5.666-10.457 24.632-16.288 52.004-16.288 80.849 0 3.451.082 6.892.258 10.302h362.232c.175-3.41.258-6.851.258-10.302 0-28.845-5.831-56.217-16.287-80.849z" fill="#f1faff"/><path d="m437.374 86.515c0 3.451-.082 6.892-.258 10.302h-41.97c.175-3.41.258-6.851.258-10.302 0-28.845-5.831-56.217-16.297-80.849-1.453-3.451-4.863-5.666-8.602-5.666h41.97c3.74 0 7.149 2.215 8.612 5.666 10.456 24.632 16.287 52.004 16.287 80.849z" fill="#c9f0fd"/><path d="m262.829 300.244c-3.93 3.434-9.746 3.433-13.675-.003-14.205-12.424-30.775-21.877-48.681-28.067-73.009-25.209-125.847-98.805-125.847-185.659h362.747c0 86.855-52.838 160.451-125.847 185.659-10.425 3.606-20.408 8.324-29.731 14.083-6.681 4.127-13.03 8.799-18.966 13.987z" fill="#ecf8d9"/><path d="m249.283 300.355c-4.526-3.968-9.295-7.637-14.268-10.998 1.576-1.061 3.183-2.101 4.801-3.101 9.323-5.759 19.306-10.477 29.741-14.083 73.009-25.209 125.847-98.805 125.847-185.659h41.97c0 86.855-52.838 160.451-125.847 185.659-10.425 3.606-20.408 8.324-29.731 14.083-6.681 4.127-13.029 8.799-18.964 13.985-3.881 3.391-9.673 3.511-13.549.114z" fill="#dbf2b4"/></g><g><path d="m240.69 255.636c-10.576 0-20.326-3.526-28.137-9.478-2.603-1.984-2.765-5.875-.282-8.007 8.131-6.981 18.704-11.199 30.266-11.199 10.576 0 20.326 3.526 28.137 9.478 2.603 1.984 2.765 5.875.282 8.007-8.131 6.981-18.704 11.199-30.266 11.199z" fill="#2db181"/></g><g><path d="m284.639 211.687c-10.576 0-20.326-3.526-28.137-9.478-2.603-1.984-2.765-5.875-.282-8.007 8.131-6.981 18.704-11.199 30.266-11.199 10.576 0 20.326 3.526 28.137 9.478 2.603 1.984 2.765 5.875.282 8.007-8.131 6.981-18.704 11.199-30.266 11.199z" fill="#2db181"/></g><g><g><path d="m301.07 159.699-110.27 108.797c-5.079-2.091-10.044-4.44-14.886-7.005l114.299-112.784c3.039-2.998 7.932-2.967 10.93.072 2.997 3.028 2.966 7.922-.073 10.92z" fill="#5bbd93"/></g></g><g><path d="m221.439 209.543c0 10.576-3.526 20.326-9.478 28.137-1.984 2.603-5.875 2.765-8.007.282-6.981-8.131-11.199-18.704-11.199-30.266 0-10.576 3.526-20.326 9.478-28.137 1.984-2.603 5.875-2.765 8.007-.282 6.981 8.131 11.199 18.704 11.199 30.266z" fill="#bcea73"/></g><g><path d="m265.388 165.594c0 10.576-3.526 20.326-9.478 28.137-1.984 2.603-5.875 2.765-8.007.282-6.981-8.131-11.199-18.704-11.199-30.266 0-10.576 3.526-20.326 9.478-28.137 1.984-2.603 5.875-2.765 8.007-.282 6.981 8.131 11.199 18.704 11.199 30.266z" fill="#bcea73"/></g><g><path d="m321.144 147.53c-7.479 7.479-16.867 11.88-26.599 13.194-3.293.445-6.111-2.272-5.851-5.584.838-10.643 5.329-21.054 13.472-29.198 7.479-7.479 16.867-11.88 26.599-13.194 3.293-.445 6.111 2.272 5.851 5.584-.837 10.643-5.328 21.054-13.472 29.198z" fill="#bcea73"/></g><g id="XMLID_249_"><path d="m360.633 168.882c-4.116 0-7.536-3.245-7.714-7.396-.182-4.263 3.126-7.867 7.389-8.049l.306-.013c4.267-.182 7.867 3.126 8.049 7.389s-3.126 7.867-7.389 8.049l-.306.013c-.112.005-.224.007-.335.007z" fill="#dbf2b4"/></g><g id="XMLID_248_"><path d="m162.327 192.981c-4.11 0-7.529-3.237-7.713-7.384-.189-4.263 3.113-7.872 7.376-8.061l.306-.014c4.245-.193 7.872 3.113 8.061 7.376s-3.113 7.872-7.376 8.061l-.306.014c-.116.006-.232.008-.348.008z" fill="#dbf2b4"/></g><g><path d="m215.308 96.816h-90.264l-9.797-26.414c-1.597-4.306.598-9.097 4.904-10.693l63.748-23.653c4.306-1.597 9.086.598 10.683 4.904z" fill="#c9f0fd"/><path d="m215.308 96.816h-29.401l-17.163-46.265c-1.597-4.316-6.377-6.5-10.683-4.904l25.837-9.591c4.296-1.597 9.086.598 10.683 4.904z" fill="#9ce6fb"/><path d="m213.33 115.401-63.748 23.653c-4.306 1.597-9.086-.597-10.683-4.904l-17.678-47.636h90.265l6.748 18.193c1.607 4.307-.598 9.097-4.904 10.694z" fill="#dbf2b4"/><path d="m213.33 115.401-25.837 9.581c4.316-1.597 6.511-6.377 4.904-10.683l-10.312-27.784h29.401l6.748 18.193c1.607 4.316-.598 9.096-4.904 10.693z" fill="#bcea73"/></g></g></svg>